<?xml version="1.0" encoding="UTF-8"?>
<svg xmlns="http://www.w3.org/2000/svg" width="320" height="200" viewBox="0 0 320 200">
  <rect width="320" height="200" fill="#444"/>
  <polygon fill="rgb(216,75,75)" points="186.0,58.0 190.0,70.0 192.0,70.0 188.0,58.0"/>
  <polygon fill="rgb(216,75,75)" points="178.0,74.0 190.0,86.0 192.0,86.0 180.0,74.0"/>
  <polygon fill="rgb(216,75,75)" points="228.0,56.0 196.0,64.0 196.0,64.0 212.0,56.0"/>
  <polygon fill="rgb(216,75,75)" points="212.0,50.0 204.0,70.0 206.0,70.0 214.0,50.0"/>
  <polygon fill="rgb(216,75,75)" points="198.0,64.0 202.0,80.0 190.0,100.0 182.0,104.0 182.0,104.0 174.0,100.0 182.0,80.0 194.0,64.0"/>
  <polygon fill="rgb(216,75,75)" points="174.0,82.0 178.0,94.0 180.0,94.0 176.0,82.0"/>
</svg>